<!DOCTYPE svg PUBLIC "-//W3C//DTD SVG 1.1//EN" "http://www.w3.org/Graphics/SVG/1.1/DTD/svg11.dtd">
<!-- Uploaded to: SVG Repo, www.svgrepo.com, Transformed by: SVG Repo Mixer Tools -->
<svg width="165px" height="165px" viewBox="-1.6 -1.6 19.20 19.20" xmlns="http://www.w3.org/2000/svg" fill="#ff0000" class="bi bi-arrow-90deg-right" stroke="#ff0000" transform="rotate(90)matrix(1, 0, 0, 1, 0, 0)">
<g id="SVGRepo_bgCarrier" stroke-width="0"/>
<g id="SVGRepo_tracerCarrier" stroke-linecap="round" stroke-linejoin="round"/>
<g id="SVGRepo_iconCarrier"> <path fill-rule="evenodd" d="M14.854 4.854a.5.5 0 0 0 0-.708l-4-4a.5.5 0 0 0-.708.708L13.293 4H3.5A2.5 2.5 0 0 0 1 6.5v8a.5.5 0 0 0 1 0v-8A1.5 1.5 0 0 1 3.5 5h9.793l-3.147 3.146a.5.5 0 0 0 .708.708l4-4z"/> </g>
</svg>